<svg version="1.2" xmlns="http://www.w3.org/2000/svg" viewBox="0 0 250 100" width="250" height="100"><style>.a{fill:#fff}</style><path class="a" d="m3.9 62.3h4.2v-23.5h-4.2v-2.7h10.8q0.9 0 1.6-0.1 0.8 0 1.5 0 6.1 0 9 1.6 2.9 1.6 2.9 5.6 0 2.8-1.4 4.3-1.4 1.5-3.5 2.1 3 0.8 4.4 2.6 1.5 1.7 1.5 4.8 0 2.2-0.8 3.8-0.7 1.5-2.1 2.5-1.5 0.9-3.8 1.4-2.2 0.4-5.2 0.4-0.8 0-1.8-0.1-0.9 0-2 0h-11.1zm17-11.4h-4.9v11.7q1.2 0.2 2.8 0.2 0.5 0 0.9 0 0.5-0.1 0.8-0.1 0.4-0.1 0.7-0.2 0.2-0.7 0.4-1.5 0.1-0.8 0.2-1.8 0.1-1 0.1-2.3 0-1.2-0.2-2.3-0.1-1.1-0.3-1.9-0.2-1-0.5-1.8zm-3.1-12.5q-0.9 0-1.8 0.2v9.9h4.8q0.1-0.7 0.2-1.5 0.1-0.7 0.2-1.6 0.1-1 0.1-2 0-1.1-0.2-2-0.1-0.9-0.2-1.5-0.2-0.7-0.3-1.3-0.4 0-0.8-0.1-0.4 0-0.9 0-0.5-0.1-1.1-0.1zm15.5 0.1v-2.4h2.7l7.5-1.3v27.9q1.8 0 2.3-1 0.5-0.9 0.5-3.2h2.4q0 1.5-0.2 2.7-0.1 1.2-0.8 2.1-0.7 0.9-2.1 1.4-1.4 0.5-3.9 0.5-1.8 0-2.9-0.5-1.1-0.5-1.7-1.2-0.6-0.8-0.8-1.5-0.3-0.8-0.3-1.3v-22.2zm25.3 16q0 1.9 0.1 3.5 0.1 1.5 0.3 2.7 0.2 1.3 0.4 2.4 0.2 0.1 0.6 0.1 0.6 0.2 1.8 0.2 1.1 0 1.8-0.2 0.4 0 0.6-0.1 0.2-1.1 0.4-2.4 0.2-1.2 0.3-2.7 0.2-1.6 0.2-3.5 0-1.8-0.2-3.3-0.1-1.6-0.3-2.8-0.2-1.3-0.4-2.4-0.3-0.1-0.7-0.1-0.3-0.1-0.7-0.1-0.5-0.1-1-0.1-0.6 0-1 0.1-0.4 0-0.8 0.1-0.4 0-0.6 0.1-0.2 1.1-0.4 2.4-0.2 1.2-0.3 2.8-0.1 1.5-0.1 3.3zm-7.7 0q0-3 0.5-5 0.6-2.1 1.9-3.4 1.3-1.3 3.4-1.9 2.1-0.6 5.1-0.6 3 0 5.1 0.6 2.1 0.6 3.4 1.9 1.3 1.3 1.9 3.4 0.6 2 0.6 5 0 3.1-0.6 5.2-0.6 2-1.9 3.4-1.3 1.2-3.4 1.8-2.1 0.6-5.1 0.6-3 0-5.1-0.6-2.1-0.6-3.4-1.8-1.3-1.4-1.9-3.4-0.5-2.1-0.5-5.2zm41.2 18.3v-2.4h1.9q1.6 0 1.9-0.3 0.5-0.3 0.5-1.1v-0.7h-12.1q-2.3 0-3.8-0.3-1.6-0.4-2.5-1.1-0.9-0.7-1.3-1.9-0.4-1.1-0.4-2.7 0-1.3 0.3-2.2 0.3-0.9 0.8-1.5 0.5-0.6 1.1-1 0.6-0.3 1.1-0.5-1.5-0.9-2.1-2.3-0.6-1.5-0.6-3.8 0-2 0.5-3.4 0.5-1.5 1.8-2.3 1.2-0.9 3.1-1.3 2-0.4 4.9-0.4h5.6q1.2 0 1.9-0.2 0.7-0.2 1-0.6 0.3-0.4 0.4-0.9 0.1-0.7 0.1-1.5h2.5q0 2.5-0.8 3.7-0.8 1.1-2.3 1.5 1.9 1.8 1.9 5.4 0 2.1-0.5 3.5-0.6 1.4-1.8 2.3-1.2 0.8-3.2 1.3-1.9 0.3-4.8 0.3-3.1 0-5.1-0.4-0.5 0.2-1.2 0.4-0.5 0.3-1 0.7-0.6 0.4-0.9 0.9-0.3 0.5-0.3 1.2h13.6q3.9 0 5.5 1.4 1.7 1.4 1.7 4.4 0 1.6-0.3 2.6-0.2 1.1-0.8 1.8-0.6 0.7-1.7 1.1-1 0.3-2.7 0.3zm-7.6-21.8q0 1.1 0.1 2.1 0.1 0.9 0.2 1.6 0.2 0.8 0.3 1.4 0.3 0.1 0.6 0.1 0.2 0.1 0.5 0.1 0.4 0 0.9 0 0.4 0 0.8 0 0.4 0 0.6-0.1 0.3 0 0.6-0.1 0.1-0.6 0.3-1.4 0.1-0.7 0.2-1.6 0.1-1 0.1-2.1 0-1.1-0.1-2-0.1-1-0.2-1.6-0.2-0.8-0.3-1.5l-0.6-0.1q-0.2 0-0.6 0-0.4-0.1-0.8-0.1-0.5 0-0.9 0.1-0.3 0-0.5 0-0.3 0.1-0.6 0.1-0.1 0.7-0.3 1.5-0.1 0.6-0.2 1.6-0.1 0.9-0.1 2zm28.6-15.4q1.5 0 2.7 0.2 1.3 0.2 2.2 0.6l4.5-0.9v9.6q-3.4-0.1-5.5-2-2.1-1.8-2.4-5-0.9-0.2-2.2-0.2-0.5 0-0.8 0.1-0.3 0-0.5 0l-0.5 0.1q-0.2 0.4-0.3 0.9-0.1 0.5-0.2 1.1-0.1 0.5-0.1 1.2 0 2.5 1.1 3.7 1.1 1.2 3.6 2 1.5 0.5 3 1.3 1.6 0.7 2.8 1.9 1.4 1.1 2.2 2.7 0.8 1.5 0.8 3.4 0 4.9-3 7.2-3 2.2-8.4 2.2-2.3 0-3.7-0.2-1.3-0.3-2.1-0.5l-3.9 0.7v-10.5q1.8 0.1 3.2 0.7 1.4 0.6 2.4 1.7 1 1.1 1.5 2.5 0.6 1.5 0.7 3.2 0.4 0.1 0.7 0.1h0.8q0.5 0 1 0 0.6-0.1 1-0.1 0.5-0.1 1.1-0.1 0.1-0.3 0.3-0.9 0.1-0.4 0.2-1 0.1-0.7 0.1-1.6 0-2.1-1-3.3-1-1.3-2.5-2.2-1.5-0.9-3.3-1.6-1.6-0.8-3.1-1.8-1.6-1-2.5-2.6-1-1.6-1-4 0-1.9 0.5-3.4 0.6-1.6 1.9-2.7 1.3-1.2 3.4-1.8 2.2-0.7 5.3-0.7zm13.7 11.5v-2.3h2.8l7.1-1.4v3q1.3-1.3 3-2 1.6-0.8 3.4-0.8 2 0 3.5 0.7 1.5 0.5 2.5 1.8 1 1.3 1.5 3.4 0.5 2.1 0.5 5 0 3.1-0.5 5.2-0.6 2-1.9 3.4-1.3 1.2-3.4 1.8-2.1 0.5-5.1 0.5-0.9 0-1.7 0-0.8-0.1-1.5-0.2v7.6h-10.2v-2.4h2.8v-23.3zm15.8-0.9q-1.6 0-3.1 1-1.4 1-2.5 2.4v13.3q0.8 0.2 1.6 0.3 0.9 0.1 1.6 0.1 1.1 0 1.7-0.1 0.4-0.1 0.7-0.1 0.2-1.1 0.4-2.4 0.1-1.2 0.3-2.7 0.1-1.6 0.1-3.5 0-2.2-0.1-3.8-0.2-1.6-0.3-2.6-0.2-1.2-0.4-1.9zm11.3-7.7v-2.4h2.8l7.4-1.3v11.5q0.6-0.8 1.5-1.3 0.8-0.6 2.1-1 1.4-0.4 3.4-0.4 1.1 0 2.2 0.2 1.1 0.2 2 0.7 1 0.5 1.5 1.3 0.6 0.8 0.6 2.2v14.6h2.8v2.4h-10.2v-18.5q-0.1 0-0.3 0-0.4-0.1-1.1-0.1-0.9 0-1.7 0.4-0.8 0.4-1.4 0.9-0.5 0.5-0.9 1.1-0.3 0.5-0.5 0.8v13h2.8v2.4h-13v-2.4h2.8v-24.1zm39 5.1q2.6 0 4.3 0.5 1.7 0.5 2.7 1.6 1.1 1 1.5 2.8 0.4 1.8 0.4 4.4 0 0.8-0.1 1.4 0 0.5 0 0.9-0.1 0.5-0.1 0.7h-11.6q0 1.6 0.1 2.9 0.2 1.3 0.3 2.2 0.2 1.2 0.4 2 0.1 0.1 0.4 0.1 0.3 0.1 0.7 0.1 0.4 0 1.2 0 1.1 0 2.2-0.1 1-0.2 1.8-0.6 0.8-0.3 1.3-1 0.4-0.7 0.4-1.7h2.6q0 2-0.9 3.1-0.9 1.1-2.2 1.8-1.2 0.5-2.8 0.7-1.5 0.1-2.8 0.1-2.8 0-4.9-0.6-1.9-0.6-3.2-1.8-1.2-1.4-1.8-3.4-0.6-2.1-0.6-5.2 0-3 0.5-5 0.5-2.1 1.8-3.4 1.2-1.3 3.2-1.9 2.1-0.6 5.2-0.6zm-2.1 2.4q-0.2 1-0.4 2.2-0.2 1.1-0.3 2.6-0.1 1.4-0.1 3.1h4.5q-0.1-2-0.2-3.4-0.2-1.5-0.4-2.5-0.1-1.2-0.4-2-0.1-0.1-0.3-0.1-0.2-0.1-0.5-0.1-0.2-0.1-0.5-0.1-0.4 0-0.6 0.1-0.2 0-0.4 0.1-0.2 0-0.4 0.1zm14.1 1.1v-2.3h2.7l7.1-1.4v3q0.1-0.1 0.4-0.5 0.3-0.5 0.9-1 0.7-0.5 1.8-0.9 1.2-0.4 2.8-0.4 1.1 0 1.6 0 0.7 0.1 1 0.1 0.4 0.1 0.5 0.1v9.1q-1.7 0-2.9-0.7-1.1-0.6-1.8-1.6-0.7-1-1.1-2.1-0.4-1.1-0.5-1.9-0.4 0.2-0.8 0.7-0.4 0.3-0.7 0.8-0.3 0.4-0.5 0.9-0.3 0.3-0.3 0.6v13h2.7v2.4h-12.9v-2.4h2.7v-15.5zm31.8-3.5q2.6 0 4.3 0.5 1.7 0.5 2.7 1.6 1.1 1 1.5 2.8 0.4 1.8 0.4 4.4 0 0.8 0 1.4-0.1 0.5-0.1 0.9-0.1 0.5-0.1 0.7h-11.6q0 1.6 0.2 2.9 0.1 1.3 0.3 2.2 0.1 1.2 0.3 2 0.2 0.1 0.5 0.1 0.2 0.1 0.6 0.1 0.5 0 1.2 0 1.2 0 2.2-0.1 1.1-0.2 1.9-0.6 0.8-0.3 1.2-1 0.5-0.7 0.5-1.7h2.5q0 2-0.9 3.1-0.8 1.1-2.2 1.7-1.2 0.6-2.7 0.8-1.5 0.1-2.8 0.1-2.9 0-4.9-0.6-2-0.6-3.3-1.8-1.2-1.4-1.8-3.4-0.5-2.1-0.5-5.2 0-3 0.4-5 0.6-2.1 1.8-3.4 1.2-1.3 3.2-1.9 2.1-0.6 5.2-0.6zm-2.1 2.4q-0.2 1-0.4 2.2-0.1 1.1-0.3 2.6-0.1 1.4-0.1 3.1h4.5q-0.1-2-0.2-3.4-0.1-1.5-0.3-2.5-0.2-1.2-0.4-2-0.2-0.1-0.4-0.1-0.2-0.1-0.4-0.1-0.3-0.1-0.6-0.1-0.3 0-0.6 0.1-0.2 0-0.4 0.1-0.2 0-0.4 0.1z"/></svg>